<svg width="200" height="200" viewBox="0 0 200 200" fill="none" xmlns="http://www.w3.org/2000/svg">
<path d="M97.6 16.2C94.5 20.5 92 31.3 90.8 45.1L89.6 58.9L84.7 51.2C71.5 30.6 58.8 20 56.1 27.2C54.2 32.2 58.4 46.6 66 61.3L70.9 70.8L62.5 66.4C46.3 57.7 29.4 53.3 25.9 56.7C21.7 60.9 37.3 76.8 56.2 87.5L60.1 89.7L49.3 90.3C19.8 92 5.20003 99.8 19.5 106.1C25.5 108.8 36.4 110.8 49.3 111.6L59.9 112.3L53.2 116.3C34.9 127.3 21.8 141.2 25.9 145.3C29.2 148.6 44.4 144.7 60.6 136.5L70.7 131.3L65.5 141.6C59.5 153.5 56.1 163.6 55.8 170.3C55.4 179.7 60.3 179.1 70.6 168.7C74.4 164.7 80.3 157.3 83.7 152.3L89.7 143L90.5 153.3C91.9 174 96 187.5 100.9 187.5C104.1 187.5 106.6 183.9 108.5 176.5C110.3 169.3 112 155.8 112 147.5V141.5L114.3 145.6C119.3 154.3 125.7 162.8 131.9 169.2C139.2 176.6 143.4 178.5 145.7 175.4C148.6 171.4 144.2 155.5 135.7 139.5L131.2 131.2L140.6 136C155.5 143.6 169.7 147.8 174.6 146C181.8 143.2 171.9 131.1 151.7 118L143 112.3L153.7 111.6C199.8 108.6 199.1 93 152.8 90.3L142.1 89.7L148.8 85.7C157.9 80.2 165.6 74.3 171.2 68.2C185.9 52.5 170.2 50.9 141.8 65.3L131.3 70.7L135.7 62.4C141 52.4 145.5 40.3 146.4 33.5C148.7 16.4 131.6 27.7 116.2 53.4L112 60.4V54.4C112 40.3 108.6 21.7 105.1 17C102.7 13.6 99.6 13.3 97.6 16.2ZM110.6 81.9C112.8 82.9 116 85.4 117.7 87.4C129.6 101.9 120 123 101.5 123C88.3 123 79.6 114.5 79.6 101.5C79.6 92.2 84.7 84.4 93 81.1C97.1 79.5 106.1 79.9 110.6 81.9Z" fill="#AAAAAA"/>
<path d="M94.4 88.9C89.2 92.1 87 95.7 87 101.2C87 107.4 89.3 111.6 94.2 114.1C104.2 119.2 115.3 112.6 115.3 101.5C115.3 90.6 103.4 83.4 94.4 88.9ZM105.4 96.1C107.3 97.6 108 99.1 108 101.5C108 105.1 104.4 109 101 109C97.6 109 94 105.1 94 101.5C94 97.9 97.6 94 101 94C102 94 103.9 94.9 105.4 96.1Z" fill="#AAAAAA"/>
</svg>
