<svg width="200" height="200" viewBox="0 0 200 200" fill="none" xmlns="http://www.w3.org/2000/svg">
<path d="M94.9 14.1C84.2 20 76.3 29.9 72.5 42.1L70.7 47.7L66.2 46.4C56.2 43.3 40.6 45.2 31.3 50.6C24.7 54.4 24 55.5 24 61.9C24 73.4 28.8 85.7 36.7 94.1L41.3 99L36.7 103.9C28.9 112.3 24 124.6 24 136C24 142.3 25.3 144.2 32.5 147.8C42.7 152.9 55.3 154.4 65.7 151.7L70.8 150.3L72.6 156.3C74.9 164 80.3 172.4 86.6 177.9C91.8 182.4 97.9 186 100.5 186C103.8 186 110.7 181.5 116.8 175.4C123 169.2 127.8 160.7 129.4 153.4L130.1 150.3L135.3 151.7C145.6 154.3 158.2 153 168 148C175.7 144.2 177 142.4 177 136C177 124.3 172.1 111.9 164.2 103.8L159.7 99.1L164.2 94.2C169.6 88.5 173.4 81.4 175.5 73.3C177.1 67.3 177.5 57.2 176.2 55.5C174.6 53.1 168.5 49.6 162.2 47.4C154.4 44.6 142 44.2 134.7 46.4L130.2 47.8L129 43.3C125.9 30.7 114.6 17.3 102.9 12.3C100.7 11.3 99.5 11.6 94.9 14.1ZM108 61.7C109.7 63.1 111.6 65.4 112.1 66.7C112.8 68.7 113.3 68.9 114.9 68C117.7 66.6 122.6 66.8 125.9 68.4C131.2 71.2 133.6 77.2 131.7 83C130.5 86.4 130.6 86.6 133.4 88C142.8 92.8 142.8 105.2 133.4 110C130.5 111.5 130.5 111.6 131.8 115.4C132.9 119 132.8 119.8 130.8 123.9C127.9 129.7 123 131.9 116.9 130.3C113.1 129.3 113 129.4 111.1 132.6C105.9 141.3 94.1 140.9 89.4 131.8C88.2 129.4 87.7 129.2 85.4 130C77.3 133.1 68.8 127.2 68.8 118.4C68.8 116.6 69.2 114.4 69.8 113.4C70.6 112 70.2 111.4 67.7 110.1C58.2 105.2 58.2 92.8 67.7 87.9C70.2 86.6 70.6 86 69.8 84.6C68.2 81.8 68.7 75.4 70.6 72.5C73.7 67.7 81.3 65.5 86.1 68C87.7 68.9 88.2 68.7 88.9 66.7C90.6 62.4 95.7 59 100.5 59C103.7 59 105.6 59.7 108 61.7Z" fill="#AAAAAA"/>
<path d="M89.5 71C82.2 73.8 77.5 78.2 73.9 85.6C71.3 90.9 70.7 93.2 70.7 98.9C70.7 110.6 77.2 121 87.9 126.2C94.5 129.5 106.5 129.4 113.4 126C137.2 114.4 135.7 80.3 111 70.9C104.6 68.5 96 68.5 89.5 71ZM105.4 93.1C107.4 94.7 108 96 108 98.9C108 103.7 105.2 106.4 100.3 106.4C95.9 106.4 93 103.2 93 98.5C93 94.7 96.7 91 100.5 91C101.7 91 103.9 91.9 105.4 93.1Z" fill="#AAAAAA"/>
</svg>
