<svg width="200" height="200" viewBox="0 0 200 200" fill="none" xmlns="http://www.w3.org/2000/svg">
<path d="M79.5001 38.0001L74.5001 47.9001L65.3001 42.0001C60.2001 38.7001 56.0001 36.2001 56.0001 36.4001C56.0001 37.1001 73.1001 72.2001 85.9001 97.9001C92.6001 111.3 97.9001 122.4 97.7001 122.6C97.5001 122.8 85.3001 105 70.5001 83.0001C55.8001 61.0001 43.6001 43.1001 43.5001 43.3001C43.4001 43.4001 43.5001 48.4001 43.9001 54.4001L44.5001 65.3001L33.3001 64.6001C27.1001 64.2001 22.0001 64.3001 22.0001 64.8001C22.0001 65.2001 23.5001 70.2001 25.4001 75.8001L28.8001 85.9001L23.7001 86.9001C20.8001 87.5001 15.7001 88.6001 12.2001 89.2001L6.00006 90.5001L12.4001 100.1L18.8001 109.7L10.9001 113.5C-2.69994 120.2 -2.49994 120.2 40.8001 123L78.5001 125.5L79.0001 142C79.6001 160.7 80.3001 163 87.7001 168.6C97.5001 176.1 112.1 173.2 118.2 162.6C120.3 158.9 120.5 157 121 142L121.5 125.5L159.4 123C186.2 121.2 197.5 120.1 197.7 119.3C198 118.6 194.7 116.4 190.1 114C185.6 111.8 182 109.8 182 109.5C182 109.3 184.7 104.9 188 99.8001L193.9 90.5001L183.3 88.2001C177.4 87.0001 172.4 85.7001 172.2 85.5001C172 85.3001 173.4 80.3001 175.3 74.5001L178.9 63.9001L167.3 64.6001L155.7 65.3001L156.4 53.9001C156.9 46.8001 156.8 42.9001 156.2 43.5001C155.7 44.0001 143.4 62.3001 129 84.0001C114.6 105.7 102.3 123.9 101.8 124.5C100.8 125.5 105.4 116.1 130.9 64.5001C138.5 49.1001 144.6 36.4001 144.5 36.2001C144.3 36.0001 140.1 38.6001 135.1 41.9001L126 48.0001L121.8 39.8001C119.4 35.2001 117.2 30.7001 116.8 29.7001C116.3 28.7001 115.6 28.0001 115.1 28.2001C114.7 28.3001 111.2 32.0001 107.5 36.2001C103.8 40.5001 100.4 44.0001 100.1 44.0001C99.7001 44.0001 96.3001 40.4001 92.5001 36.0001C88.7001 31.6001 85.4001 28.0001 85.1001 28.0001C84.7001 28.0001 82.2001 32.5001 79.5001 38.0001Z" fill="#AAAAAA"/>
</svg>
