<svg width="200" height="200" viewBox="0 0 200 200" fill="none" xmlns="http://www.w3.org/2000/svg">
<path d="M91.3 31.9C87 35.2 80.8 40.3 77.5 43.3L71.5 48.7L83 60.7C89.3 67.2 95.6 74.3 97 76.3C98.4 78.3 99.7 80 100 80C100.3 79.9 102.1 77.8 104 75.3C105.9 72.7 112.2 65.7 118 59.7L128.5 48.7L123.2 43.9C116 37.3 101.5 26 100.2 26C99.6 26 95.6 28.7 91.3 31.9Z" fill="#AAAAAA"/>
<path d="M45 83.2001C45 133.4 45.3 136.6 50.6 147.5C56.7 159.8 68.6 170.5 81.5 175.2C88.9 177.8 103.9 178.8 111.9 177C118.5 175.6 131.9 169.5 132.6 167.5C133.4 165.4 128.6 148.4 123.4 135.3C109.6 100.2 85.2 67.5001 55.5 44.5001C51.1 41.1001 46.9 38.0001 46.3 37.6001C45.3 37.0001 45 46.4001 45 83.2001Z" fill="#AAAAAA"/>
<path d="M145.3 43.9001C134.4 52.3001 118.8 67.5001 110.3 78.0001L104.2 85.6001L109.2 93.0001C117.1 105 129.4 130.6 133.9 144.7C136.2 151.7 138 158.3 138 159.2C138 162.7 140 161.9 143.9 156.7C148.7 150.4 152.3 142.6 153.9 135C154.8 131.1 155 116.1 154.8 83.1001L154.5 36.8001L145.3 43.9001Z" fill="#AAAAAA"/>
</svg>
