<svg width="200" height="200" viewBox="0 0 200 200" fill="none" xmlns="http://www.w3.org/2000/svg">
<path d="M100.8 18.1C98.7998 19.2 95.4998 29.4 93.9998 39.4C92.9998 45.6 93.0998 46.5 94.7998 48.4C95.8998 49.6 97.9998 52.4 99.4998 54.8L102.3 59L103.6 56.4C104.4 55 106.4 52.1 108.1 49.9L111.2 46L110.1 38.8C107.8 23.6 104.3 16 100.8 18.1Z" fill="#AAAAAA"/>
<path d="M78.1 23.0999C77.5 24.8999 77 28.9999 77 32.1999C77 37.2999 77.5 38.7999 80.1 42.3999C83 46.4999 83.2 46.5999 86.5 45.5999C93.6 43.3999 92.4 31.9999 84.2 23.1999C80.5 19.1999 79.5 19.1999 78.1 23.0999Z" fill="#AAAAAA"/>
<path d="M121.8 20.9999C120.9 21.5999 118.5 24.6999 116.5 28.0999C113.1 33.5999 112.8 34.4999 113.4 39.2999C114 44.1999 114.3 44.5999 117.6 45.5999C120.9 46.6999 121.1 46.5999 124 42.6999C126.6 39.0999 127 37.7999 127 31.8999C127 25.1999 125.8 19.9999 124.3 19.9999C123.8 19.9999 122.7 20.4999 121.8 20.9999Z" fill="#AAAAAA"/>
<path d="M58.2999 30.5999C56.6999 34.7999 64.4999 59 67.4999 59C68.0999 59 71.2999 60.3 74.3999 61.8L79.9999 64.7V60.6C79.9999 58.3 80.3999 54.9999 80.8999 53.2999C81.7999 50.3999 81.3999 49.4999 76.9999 43.6999C71.1999 36.0999 63.3999 28.9999 60.7999 28.9999C59.7999 28.9999 58.6999 29.6999 58.2999 30.5999Z" fill="#AAAAAA"/>
<path d="M134.7 35.1998C131.3 38.6998 127.3 43.2998 125.8 45.4998C123.3 49.1998 123.1 49.9998 123.7 57.0998L124.3 64.7998L129.7 61.8998C132.7 60.2998 135.8 58.9998 136.6 58.9998C138.1 58.9998 141.1 52.6998 144 43.2998C148.8 27.6998 145.3 24.6998 134.7 35.1998Z" fill="#AAAAAA"/>
<path d="M41 44.3999C41 45.6999 42.5 49.5999 44.3 53.1C47.2 58.5 48.3 59.6 52.6 61.5L57.5 63.7L60.1 61.1L62.6 58.5L60.4 53.4C58.4 48.8999 57.5 47.9999 51.7 45.1999C43.8 41.2999 41 41.0999 41 44.3999Z" fill="#AAAAAA"/>
<path d="M153.5 44.4999C146.5 47.9999 145.6 48.8999 143.6 54.0999L141.8 58.6999L144.3 61.1999L146.7 63.5999L151.6 61.4999C155.8 59.5999 157 58.3999 159.8 53.2999C165.6 42.2999 163.6 39.4999 153.5 44.4999Z" fill="#AAAAAA"/>
<path d="M85.4 50.4999C84.5 51.8999 83.5 55.9999 83.2 59.5999L82.7 66.0999L88.1 71.5999C93.3 76.8999 93.4 76.8999 95.5 75.0999C96.6 74.0999 98.8 72.9999 100.3 72.5999C102.9 71.9999 103.1 71.5999 102.5 69.1999C101.1 63.4999 95.9 54.0999 92.5 51.0999C88.2 47.3999 87.5 47.2999 85.4 50.4999Z" fill="#AAAAAA"/>
<path d="M112 50.5999C110.3 52.0999 107.8 55.4999 106.4 58.1999C103.9 63.0999 103.9 63.1999 105.6 68.2999C106.5 71.1999 108 74.1999 108.9 75.0999C110.5 76.5999 111 76.2999 115.9 71.7999L121.3 66.8999L120.8 59.3999C120.4 54.1999 119.8 51.3999 118.5 49.9999C116.2 47.3999 115.8 47.4999 112 50.5999Z" fill="#AAAAAA"/>
<path d="M28.7 59.7C26.2 62.2 32.6 70.5 43.1 78.4C48.5 82.5 49.3 82.8 52.2 81.9C54 81.4 57.3 81 59.6 81H63.7L60.8 75.4C59.3 72.3 58 69.2 58 68.5C58 65.1 31.3 57.1 28.7 59.7Z" fill="#AAAAAA"/>
<path d="M161.5 61.3999C150.6 64.9999 146 67.0999 146 68.4999C146 69.1999 144.7 72.2999 143.2 75.3999L140.3 80.9999H145.1C147.7 80.9999 151.1 81.4999 152.5 81.9999C154.8 82.8999 155.8 82.5999 159.3 79.7999C165.9 74.7999 174 66.7999 175.7 63.5999C176.9 61.1999 177 60.5999 175.8 59.8999C173.6 58.4999 168.9 58.9999 161.5 61.3999Z" fill="#AAAAAA"/>
<path d="M62.0999 63.3999C59.2999 66.7999 63.9999 77.0999 72.6999 86.7999L77.4999 92.0999L83.5999 91.3999L89.6999 90.6999L90.3999 84.5999L90.9999 78.4999L85.7999 73.8999C75.6999 64.6999 64.8999 59.9999 62.0999 63.3999Z" fill="#AAAAAA"/>
<path d="M133.8 63.5C128.8 65.3 122.5 69.8 117.3 75.2L113 79.6L114.2 85.2L115.4 90.8L120.9 91.4L126.5 92L131.8 86.3C140.4 77 145.6 64.2 141.4 62.6C139.3 61.8 138.1 61.9 133.8 63.5Z" fill="#AAAAAA"/>
<path d="M97.7 77.0998C95.2 78.5998 93 83.9998 93 88.5998C93 91.5998 93.3 92.0998 94.8 91.4998C101.9 88.5998 102.1 88.5998 109.3 91.4998C110.8 92.0998 111 91.5998 111 87.7998C111 81.3998 107.6 76.5998 103 76.2998C101.1 76.0998 98.7 76.4998 97.7 77.0998Z" fill="#AAAAAA"/>
<path d="M21.8 79.1998C18.2 80.4998 18.3 81.4998 22.2 85.1998C31 93.3998 42.4 94.5998 44.6 87.4998C45.6 84.1998 45.5 83.9998 41.4 81.0998C37.7 78.3998 36.4 77.9998 30.8 78.0998C27.4 78.0998 23.3 78.5998 21.8 79.1998Z" fill="#AAAAAA"/>
<path d="M162.2 81.5C159.8 83.3 158.4 85.1 159 85.5C159.5 85.8 160 87.2 160 88.4C160 91 162.2 92 167.8 92C173.2 92 185 84.8 185 81.5C185 79.5 179.5 78 172.6 78.1C167.2 78.1 166 78.5 162.2 81.5Z" fill="#AAAAAA"/>
<path d="M52.7 84.9998C49.6 85.8998 47 87.7998 47 88.9998C47 90.7998 52.4 96.1998 56.7 98.5998C61.1 101.2 61.1 101.2 66.7 99.6998C69.7 98.7998 73.1 97.2998 74.2 96.3998C76 94.6998 75.9 94.4998 70.8 89.2998C65.8 84.1998 65.3 83.9998 60.5 84.0998C57.8 84.0998 54.2 84.5998 52.7 84.9998Z" fill="#AAAAAA"/>
<path d="M134.1 88.4999C131.3 91.0999 129 93.6999 129 94.1999C129 94.7999 129.9 96.2999 131 97.6999C132.1 99.0999 133 101.2 133 102.2C133 103.9 133.5 104.1 135.8 103.6C144.5 101.5 157 93.0999 157 89.3999C157 86.9999 152.2 84.7999 145.6 84.2999L139.2 83.6999L134.1 88.4999Z" fill="#AAAAAA"/>
<path d="M94.9 95.9C88.8 102 92.8 113.1 101.2 113.3C108.2 113.5 112.5 109.2 112.3 102.2C112.1 93.8 101 89.8 94.9 95.9ZM106.8 99.8C107.4 100.7 108 102.2 108 103.2C108 105.6 104.5 109 102 109C99.6 109 96 105.6 96 103.5C96 102.6 97.1 100.8 98.5 99.4C101.2 96.7 104.4 96.8 106.8 99.8Z" fill="#AAAAAA"/>
<path d="M37.4999 95.0999C29.0999 96.2999 18.4999 99.7 16.8999 101.6C14.0999 105 22.4999 108.8 37.7999 111L45.6999 112.2L48.9999 109.1C50.8999 107.4 53.6999 105.4 55.2999 104.6L58.2999 103.2L55.8999 102C54.5999 101.3 51.5999 99.2 49.2999 97.3999C46.9999 95.4999 44.7999 94.0999 44.2999 94.0999C43.8999 94.1999 40.7999 94.5999 37.4999 95.0999Z" fill="#AAAAAA"/>
<path d="M80.3 95.5C76.5 97.1 74.8 100 75.2 104.3C75.6 108.6 80.7 112 86.6 112C90.7 112 92.2 110.9 90.1 109.6C88.3 108.4 87.9 102.1 89.5 98.4C90.3 96.4 91 94.6 91 94.4C91 93.4 83.2 94.2 80.3 95.5Z" fill="#AAAAAA"/>
<path d="M114.6 96.7C115.4 99.3 115.5 104.3 114.8 110C114.5 112.3 114.8 112.5 118 112.2C125.7 111.4 130.9 106.4 129.3 101.4C128 97.4 122.6 94 117.7 94C113.9 94 113.8 94.1 114.6 96.7Z" fill="#AAAAAA"/>
<path d="M156.1 96.3998C154.9 97.6998 152.3 99.5998 150.4 100.6C147.3 102.3 145.9 104 147.8 104C148.2 104 151 105.9 154 108.1L159.4 112.3L169 110.6C178.4 108.9 187.1 105.6 187.8 103.3C188.3 101.4 183.9 99.0998 175.4 97.0998C161.9 93.7998 158.6 93.6998 156.1 96.3998Z" fill="#AAAAAA"/>
<path d="M63.7 104.4C56.2 107.5 50.5 111.3 48.4 114.6C46.8 117 46.8 117.2 48.8 119.2C50.4 120.8 52.5 121.4 58.4 121.8L65.9 122.3L70.8 116.9C75.6 111.7 75.6 111.5 73.9 109.7C72.9 108.6 71.8 106.4 71.5 104.9C71.1 103.3 70.5 102 70.2 102C69.8 102 66.9 103.1 63.7 104.4Z" fill="#AAAAAA"/>
<path d="M135.9 106.7C133.4 107.6 130.8 109.2 130.1 110.3C129 112 129.3 112.8 133.6 117.1C138.2 121.8 138.6 122 144.1 122C159.1 122 160.8 116 148.1 107.9C143.1 104.6 142.3 104.6 135.9 106.7Z" fill="#AAAAAA"/>
<path d="M26.2998 118C15.9998 124.8 16.7998 127.3 29.2998 127.8C37.1999 128.1 37.5999 128 41.5999 125C45.4999 122 45.5999 121.7 44.5999 118.5C43.7999 115.8 42.9999 115.1 39.9999 114.6C33.8998 113.6 32.5999 113.9 26.2998 118Z" fill="#AAAAAA"/>
<path d="M73.6 118.8C65.1 127.7 60.2 136.7 61.4 141.5C62.9 147.4 74.9 142.6 87.2 131.2C91.1 127.6 91.8 126.4 91 125C90.4 124 90 121.6 90 119.7C90 116.5 89.7 116.2 86.3 115.6C84.2 115.3 81.6 114.7 80.4 114.4C78.8 114 77.2 115 73.6 118.8Z" fill="#AAAAAA"/>
<path d="M93 118.4C93 126 98.9 132.1 104.3 130.1C108.3 128.5 110.3 125.3 110.8 119.6L111.2 114.2L106.6 115.8C102.3 117.4 101.7 117.4 97.5 115.9L93 114.2V118.4Z" fill="#AAAAAA"/>
<path d="M119.4 115.2C115.4 116.2 115.2 116.4 114 121.8L112.8 127.4L118.6 132.7C121.9 135.6 127.3 139.4 130.6 141.1C141.8 146.7 145.7 143.5 140.7 132.7C137.8 126.3 127.5 114 125.2 114.1C124.3 114.2 121.6 114.7 119.4 115.2Z" fill="#AAAAAA"/>
<path d="M162.8 114.7C160.7 115 160 115.7 160 117.4C160 118.6 159.5 120.1 159 120.6C158.3 121.3 159.4 122.7 162.5 124.9C166.9 128.1 167.4 128.2 175 127.8C187.2 127.3 187.9 124.5 177.7 117.9C171.8 114.1 169.8 113.6 162.8 114.7Z" fill="#AAAAAA"/>
<path d="M44.5 126.5C42.9 128 39.3 131 36.6 133.2C31.5 137.6 28 142.4 28 145.2C28 146.6 28.8 147 31.8 147C39.5 147 57 140.7 57.8 137.6C58.1 136.5 59.5 133.2 61 130.3L63.7 125H60C57.9 125 54.3 124.8 51.9 124.5C48.2 124 47 124.3 44.5 126.5Z" fill="#AAAAAA"/>
<path d="M146.4 124.7L140.4 125.1L143.2 130.7C144.7 133.8 146 136.9 146 137.5C146 138.8 157.3 143.9 164.5 145.9C169.2 147.2 175.7 147.3 176.4 146.2C177.1 145 174.3 139.9 170.7 136.2C165.5 130.7 156.3 124 154.3 124.2C153.3 124.3 149.8 124.5 146.4 124.7Z" fill="#AAAAAA"/>
<path d="M88 134.6L82.7 140.2L83.3 146.6C83.8 153.2 86 158 88.4 158C90.5 158 95.8 152.4 98.2 147.7C100.2 143.7 100.2 143.5 98.5 138.1C97.6 135 96 131.7 95 130.8C93.3 129.2 92.9 129.4 88 134.6Z" fill="#AAAAAA"/>
<path d="M107.5 132.1C105.9 133.1 103.7 134 102.8 134C100.4 134 100.5 134.8 103.6 142.5C106.8 150.4 113.3 158.2 116.4 157.8C119.1 157.4 120.9 152.4 120.9 145C121 139.6 120.8 139.2 116.2 134.7C113.6 132.1 111.2 130 111 130.1C110.7 130.1 109.2 131 107.5 132.1Z" fill="#AAAAAA"/>
<path d="M74.5 144.2C71.8 145.7 68.7 147 67.8 147C65.2 147 58 166.7 58 173.7C58 177.7 59.2 178.5 62.7 176.6C68.4 173.6 82.7 156.9 81.4 154.8C81 154.1 80.4 150.9 80.1 147.5L79.5 141.5L74.5 144.2Z" fill="#AAAAAA"/>
<path d="M123.7 149.4C123.2 157.2 123.2 157.5 126.3 161.5C134 171.6 142.6 179 145 177.5C146.3 176.7 146.3 170.5 144.9 165.5C142.9 158.3 137.8 147 136.5 147C135.9 147 132.8 145.7 129.8 144.2L124.3 141.4L123.7 149.4Z" fill="#AAAAAA"/>
<path d="M52.8 144.5C49.3 146 47.5 147.7 45 151.8C43.3 154.7 41.6 158.6 41.3 160.5C40.8 163.8 40.9 164 43.6 164C45.2 164 49.2 162.5 52.4 160.7C57.4 157.9 58.6 156.7 60.4 152.5L62.5 147.5L59.9 145L57.3 142.5L52.8 144.5Z" fill="#AAAAAA"/>
<path d="M144 145.1L141.5 147.7L143.7 152.7C145.7 157 146.9 158.2 151.9 160.9C163.2 166.9 165.7 164.3 159.8 153C156.9 147.7 155.8 146.6 151.5 144.7L146.5 142.5L144 145.1Z" fill="#AAAAAA"/>
<path d="M100.6 149.9C99.6999 151.6 97.5999 154.5 95.9999 156.3L93.0999 159.7L94.4999 169.4C95.9999 179.2 98.6999 187.1 101 188.5C104.1 190.4 108.1 181.1 110.2 167.2C111.2 160 111.2 159.8 108.7 157.2C107.3 155.7 105.3 152.8 104.2 150.7L102.1 146.8L100.6 149.9Z" fill="#AAAAAA"/>
<path d="M80.0999 163.7C76.7999 168.1 76.7999 168.4 77.1999 176.2C77.8999 188.1 80.3999 189 86.7999 179.5C90.7999 173.6 91.3999 171.2 90.5999 165.5C89.9999 161.7 89.4999 161 87.5999 161C86.3999 161 84.9999 160.6 84.4999 160.1C83.8999 159.5 82.1999 160.9 80.0999 163.7Z" fill="#AAAAAA"/>
<path d="M119.5 160C119.2 160.5 117.8 161 116.5 161C114.4 161 114.1 161.6 113.5 166.4C112.7 172.2 113.5 174.3 118.9 181.7C120.6 184.1 122.7 186 123.5 186C125.7 186 127 181.8 127 174.3C127 168.6 126.6 167.3 123.8 163.4C120.3 158.5 120.4 158.6 119.5 160Z" fill="#AAAAAA"/>
</svg>
