<svg width="200" height="200" viewBox="0 0 200 200" fill="none" xmlns="http://www.w3.org/2000/svg">
<path d="M74.5002 28.2001C67.2002 30.7001 62.4002 36.5001 60.9002 44.4001C59.3002 53.3001 64.3002 61.0001 85.7002 82.3001L100.6 97.1001L117.1 80.3001C134.5 62.7001 138.4 57.7001 139.9 51.1001C142.6 38.9001 132.5 27.0001 119.5 27.0001C114.1 27.0001 106.2 31.5001 103.3 36.3001L100.5 40.7001L97.8002 36.3001C93.1002 28.9001 82.7002 25.3001 74.5002 28.2001Z" fill="#AAAAAA"/>
<path d="M36.8001 64C28.9001 68.3 24.6001 78.2 26.9001 86.7C28.4001 92.6 31.7001 97 36.3001 99.4L39.7001 101.3L35.2001 104.4C24.3001 111.8 23.0001 126.5 32.5001 135.6C40.7001 143.5 50.7001 143.3 61.3001 135.1C64.2001 132.9 73.1001 124.4 81.3001 116.3L96.1001 101.4L79.8001 85.4C59.2001 65.1 55.7001 62.6 47.0001 62.3C42.0001 62 39.6001 62.4 36.8001 64Z" fill="#AAAAAA"/>
<path d="M144.1 65.1002C141 66.9002 131.6 75.2002 121.8 84.8002L104.9 101.4L117.2 113.8C142.1 139 148.6 143.1 159.2 140.9C165.7 139.5 172.3 133.2 174 126.8C176.5 117.8 172.7 108.2 165.1 103.8L161.2 101.6L164.8 99.5002C166.8 98.4002 169.8 95.5002 171.5 93.2002C174.1 89.4002 174.5 88.0002 174.5 82.0002C174.5 76.0002 174.1 74.6002 171.5 70.8002C164.9 61.6002 154.2 59.3002 144.1 65.1002Z" fill="#AAAAAA"/>
<path d="M83.9 122.7C65 141.9 61 147.6 61 155.8C61 168.4 71.3 177.3 83.9 175.6C90 174.8 94 172.2 97.6 166.8L100.7 162.2L102.3 165.6C105.7 172.6 115.9 177.2 124.5 175.6C129.1 174.7 135.9 169.4 138.3 164.7C141 159.5 140.8 152.3 137.9 146.4C136.4 143.2 129.7 135.6 118.1 123.7L100.5 105.8L83.9 122.7Z" fill="#AAAAAA"/>
</svg>
