<svg width="200" height="200" viewBox="0 0 200 200" fill="none" xmlns="http://www.w3.org/2000/svg">
<path d="M87 30.9999V39.9999H92.1C99.7 39.9999 110.3 42.7999 115.4 46.0999C121.4 50.0999 124.6 56.4999 123.1 61.2999C122.4 63.1999 120.9 65.6999 119.7 66.7999C116.3 69.9999 108.5 73.0999 102.4 73.6999L96.9 74.2999L97.2 70.8999C97.5 67.5999 97.7 67.4999 102.6 66.8999C109.1 66.0999 114.9 63.2999 116.3 60.2999C117.8 56.9999 114.9 53.1999 108.4 49.9999C103.9 47.6999 102.4 47.4999 90.5 47.4999C79.5 47.5999 76.6 47.8999 71.9 49.7999C62.8 53.3999 57.9 59.4999 59.4 65.3999C61 71.6999 72.6 78.6999 86.1 81.5999C100.7 84.7999 125 81.5999 138.1 74.8999C143.1 72.3999 149.7 66.4999 151.6 62.8999C156.6 53.0999 149.1 40.5999 133.3 32.6999C122 26.9999 110.6 24.0999 93.3 22.5999L87 21.9999V30.9999Z" fill="#AAAAAA"/>
<path d="M50.3 55.1001C22.8 73.0001 16 109.4 34.2 140.5C41.7 153.3 56.2 165.6 69.9 171L75.3 173.1L70 168.3C63.3 162.3 57.6 153.6 54.8 145.1C52.7 138.9 52.6 136.3 52.2 99.5001L51.9 60.5001L54.4 55.7001C55.8 53.1001 56.8 51.0001 56.7 51.0001C56.6 51.0001 53.7 52.8001 50.3 55.1001Z" fill="#AAAAAA"/>
<path d="M148 76.5C137.6 84.4 120.4 89.2 102 89.3C85.3 89.4 73.5 86.5 63.8 80L59.5 77.1L59.2 105.3C59.1 122.7 59.4 135.5 60 138.7C62.8 151.9 73.3 165.4 85.2 171C88.7 172.7 92 174 92.6 174C93.2 174 94 171 94.3 166.8C95.8 149.7 104.1 130.7 116.8 115.4C123.4 107.4 136.2 97.1 145.7 92.2L153 88.5V80.7C153 76.5 152.9 73 152.8 73C152.6 73 150.5 74.6 148 76.5Z" fill="#AAAAAA"/>
<path d="M177.5 88.5C156.7 91.9 140.4 100.6 125.4 116.1C111.3 130.9 102.7 149.4 100.5 169.9L99.8 176.3L105.9 175.6C120.2 174 137.3 167.7 148.6 159.9C162.3 150.5 176.1 133.1 181.9 118.1C186.9 105 189.8 86.9 186.8 87.1C186.1 87.2 181.9 87.8 177.5 88.5Z" fill="#AAAAAA"/>
</svg>
