<svg width="200" height="200" viewBox="0 0 200 200" fill="none" xmlns="http://www.w3.org/2000/svg">
<path d="M97.3 26.4C95.1 28.9 92.8 32.8 92.1 35L90.9 39.2L86.5 34.8C81.7 29.9 74.9 27 72.2 28.6C69.5 30.3 66.9 38.8 67.4 44.1L67.9 48.7L64 46.7C59.6 44.6 49.2 43.4 47.2 44.8C45 46.3 45.4 55.9 47.8 61.3L49.9 66H44.2C40.2 66 37 66.7 34 68.2C30 70.3 29.5 70.8 29.8 73.5C30.3 77.6 34.4 84.4 38.1 87.1L41.2 89.3L35.8 91.1C30.8 92.8 23 99.4 23 101.9C23 104.6 30.8 110.6 37.4 113L40.2 114L35.7 118.9C32 122.9 29 128.7 29 132.2C29 134 38 137 43.8 137H49.9L47.9 141.6C45.9 146.1 45 155.6 46.4 157.9C47.7 160 58.3 159.2 63.4 156.6L68.1 154.2L67.5 157.1C65.8 164.8 70.4 175.8 75.1 175.2C78.7 174.7 85.5 170.4 88.2 167L90.6 164L92.4 168.9C94.4 174.6 100.1 181 103.2 181C106.2 181 111.5 174.9 113.8 168.9L115.7 163.8L117.2 166.2C119.4 169.5 126.2 174 130.5 175L134.2 175.8L136.7 170.3C138.7 166 139.1 163.7 138.8 159.5L138.4 154.3L141.7 156.3C143.9 157.5 147.7 158.5 152 158.8C158.9 159.3 159 159.2 160 156.4C161.4 152.8 160.4 145.8 157.9 140.8L156 137H162.2C169.3 137 177 133.9 177 131.1C177 128 171.9 119 168.8 116.9C165.5 114.5 165.8 113.8 171.4 112C175.4 110.7 183 104 183 101.7C183 98.7 171.5 90 167.5 90C165.3 90 165.6 89.1 168.5 86.8C171.7 84.3 177 75.3 177 72.4C177 69.3 171 66.7 162.8 66.2L156.1 65.8L158.2 61.6C160.9 56.5 161.3 46.5 159 44.9C156.8 43.4 146.9 44.5 142.4 46.8L138.5 48.8V42.1C138.5 34.6 135.9 28.7 132.3 28.2C129.3 27.8 124.2 30.5 119.4 35.1L115.3 39.1L114.1 34.9C112.7 30.2 105.6 22 103 22C102 22 99.4 24 97.3 26.4ZM106.7 32.1C111.8 39.8 110.8 55.3 104.9 60.6C102.8 62.5 102.8 62.4 100.4 59.5C96.2 54.3 94.6 43.7 97.1 37.3C98.4 33.9 102.2 28 103.2 28C103.6 28 105.2 29.9 106.7 32.1ZM80.1 36.3C87.2 41.1 91.3 52 89.6 61.4C88.8 65.6 87.5 65.8 82.9 62.7C75.9 58 71.7 46.8 73.4 37.6C74.2 33.4 75.5 33.2 80.1 36.3ZM132.6 36.2C135.5 45.4 130 59.4 121.6 63.7C117.9 65.6 116.9 64.5 116.2 58.2C115.4 49.8 119.8 40.2 126.4 36C130.4 33.4 131.7 33.5 132.6 36.2ZM61.5 51.7C68.8 55.3 75 63.9 75 70.5C75 73.7 74.7 74 72.3 74C62.8 73.9 51 61.6 51 52C51 49 51.1 48.9 54.8 49.6C56.8 50 59.9 50.9 61.5 51.7ZM155 52.6C155 62.1 143.1 74 133.5 74C131.4 74 131 73.5 131 71C131 62.2 139.7 52.3 149.5 49.9C154.7 48.7 155 48.8 155 52.6ZM55.9 74.4C60.6 76.8 64.9 81.3 66.3 85.2C66.8 86.6 66 87.2 62.7 88.1C54.2 90.4 42.5 85.8 37.3 78.1C34.3 73.7 34.4 73.2 38.3 72.1C43.1 70.6 50.2 71.6 55.9 74.4ZM167.9 72.1C171.6 73.4 171.7 73.7 168.7 78.1C163.5 85.8 151.8 90.4 143.2 88.1L139 86.9L140.6 83.8C145.4 74.6 158.6 68.9 167.9 72.1ZM53.6 95.5C56.3 96.3 59.8 98 61.4 99.3L64.3 101.7L60.9 104.2C56 107.8 50.6 109.3 44.5 108.7C38.7 108.1 31.2 104.8 30.3 102.3C29.5 100.3 33.2 97.4 39 95.6C44.9 93.7 47.6 93.7 53.6 95.5ZM166.6 95.5C169.3 96.3 172.8 98 174.4 99.3L177.3 101.7L173.9 104.2C169.6 107.4 164.8 109 159.5 109C154.2 109 149.4 107.4 145.1 104.2L141.7 101.7L144.6 99.3C147.7 96.8 154.9 94.2 159.1 94.1C160.5 94 163.9 94.7 166.6 95.5ZM63.3 115.5C67.6 116.2 67.7 116.4 65 120.7C62.5 124.9 55.8 129.7 50.6 131.1C46.2 132.3 37.3 131.7 35.7 130.1C34.2 128.6 38.6 122.3 43.2 119.3C47.3 116.5 55.4 113.9 58 114.5C58.8 114.7 61.2 115.1 63.3 115.5ZM160 117.8C163.5 119.6 166.4 122 168.4 124.8C172 129.8 171.3 131 164.6 131.7C155.6 132.8 144.6 127.5 141.3 120.5C139.4 116.5 139.7 116.1 144.2 115C148.9 113.9 153.7 114.7 160 117.8ZM75 132.7C75 138.2 70.1 146.1 64.5 149.8C60.2 152.7 52.5 154.9 51.3 153.6C51 153.3 51.1 151 51.4 148.5C52.6 141.1 59.4 133.4 67.6 130.5C74 128.2 75 128.5 75 132.7ZM137.5 130.1C146.1 132.3 154.9 142.7 155 150.7C155 154.4 154.1 154.7 147.8 152.8C139.5 150.3 131.1 140 131 132.2C131 128.6 131.3 128.5 137.5 130.1ZM89 139.9C89.5 141 90 144.3 90 147.2C89.9 155.8 84.7 165 77.7 168.6C75.1 170 74.9 169.9 74 167.5C71.7 161.4 73.6 150.9 78 145.3C80.2 142.5 85.9 138 87.2 138C87.6 138 88.4 138.9 89 139.9ZM123.7 140.9C129.3 144.9 133 152.6 133 160.1C133 163.3 132.7 166.5 132.4 167.4C131.3 170.2 128.1 169.1 123.6 164.7C117.2 158.2 114.3 147.7 117 140.6C118.2 137.3 118.8 137.4 123.7 140.9ZM106.7 145.1C111.8 152.8 110.8 168.3 104.9 173.6C102.8 175.5 102.8 175.4 100.4 172.5C94.4 165 94.8 150 101.2 142.3C102.9 140.2 103.8 140.7 106.7 145.1Z" fill="#AAAAAA"/>
</svg>
