<svg width="200" height="200" viewBox="0 0 200 200" fill="none" xmlns="http://www.w3.org/2000/svg">
<path d="M89.1 23.6001C83.5 26.4001 78.3 32.5001 77.3 37.3001C76.6 41.0001 75.8 41.3001 71.9 39.3001C66.9 36.8001 57.8 36.4001 52.6 38.4001C47.2 40.5001 41.3 46.0001 38.9 51.4001C36.4 56.9001 36.4 66.2001 39 71.9001C40.1 74.3001 41 76.3001 41 76.5001C41 76.7001 39.5 77.1001 37.7 77.4001C32.7 78.3001 26.7 83.3001 23.6 89.1001C16.7 101.6 22.2 117.4 35.2 123C38.1 124.2 40.6 125.3 40.8 125.5C40.9 125.6 40.2 127.2 39.3 129.1C38.4 131 37.4 135.3 37.2 138.8C36.8 144 37.2 145.9 39.4 150.5C42.3 156.3 47.4 161 52.9 162.8C57.9 164.6 66.9 164.2 71.5 162.1L75.5 160.4L78.5 166.4C87.9 185.5 113.1 185.5 122.5 166.4L125.5 160.4L129.5 162.1C134.4 164.4 144.4 164.6 149.3 162.5C158.4 158.7 164 149.9 164 139.5C164 135.4 163.4 132.2 162 129.5C160.9 127.4 160.1 125.5 160.3 125.4C160.4 125.3 162.9 124.2 165.8 123C179 117.3 184.3 101.7 177.4 88.9001C174.9 84.3001 168.2 78.0001 165.9 78.0001C165.5 78.0001 164 77.6001 162.6 77.0001L160.1 76.1001L162.1 71.4001C163.8 67.8001 164.1 65.2001 163.8 60.0001C163.3 51.3001 159.6 44.9001 152.6 40.5001C148.2 37.9001 146.8 37.5001 140.1 37.5001C134.8 37.5001 131.5 38.0001 129.1 39.2001C127.2 40.2001 125.6 41.0001 125.4 41.0001C125.3 41.0001 124.6 39.5001 124 37.6001C120.7 27.6001 111.4 21.0001 100.5 21.0001C95.9 21.0001 93.1 21.7001 89.1 23.6001ZM109.5 65.4001C112.3 66.1001 116 67.5001 117.9 68.4001C123.3 71.2001 130.9 79.5001 133.8 85.8001C136 90.6001 136.5 92.9001 136.5 100.5C136.5 108.7 136.2 110.2 133.3 116.1C129.4 124 123.1 130.1 115.2 133.8C110.3 136.1 108.2 136.5 100.5 136.5C92.8 136.5 90.7 136.1 85.8 133.8C77.9 130.1 71.6 124 67.8 116.2C65 110.5 64.6 108.6 64.5 101.6C64.5 91.9001 65.9 86.8001 70.3 80.3001C79 67.7001 95.1 61.5001 109.5 65.4001Z" fill="#AAAAAA"/>
<path d="M96.0999 83.1C89.6999 84.5 83.7999 90.7 82.5999 97.5C80.3999 108.9 92.1999 120.7 103.5 118.6C113.6 116.7 120.6 105.8 118 96.1C115.4 86.5 106 80.9 96.0999 83.1Z" fill="#AAAAAA"/>
</svg>
